<svg width="331" height="150" viewBox="0 0 331 150" fill="none" xmlns="http://www.w3.org/2000/svg">
<rect width="331" height="150" fill="#1E1E1E"/>
<path d="M9.8 139.66C9.05333 134.807 8.4 128.927 7.84 122.02C7.37333 115.113 7 107.6 6.72 99.48C6.53333 91.36 6.44 83.1 6.44 74.7C6.44 64.1533 6.62667 53.8867 7 43.9C7.37333 33.9133 7.93333 25.14 8.68 17.58L34.44 18C33.4133 24.6267 32.62 32.42 32.06 41.38C31.5933 50.34 31.36 60.5133 31.36 71.9C31.36 83.4733 31.5467 95.0933 31.92 106.76C32.3867 118.427 32.9 129.113 33.46 138.82L9.8 139.66Z" fill="#4C25C1"/>
<path d="M101.645 140.36C90.7255 140.36 81.1121 137.793 72.8055 132.66C64.4988 127.527 58.0121 120.34 53.3455 111.1C48.7721 101.86 46.4855 91.1267 46.4855 78.9C46.4855 69.94 47.8855 61.68 50.6855 54.12C53.4855 46.56 57.4055 39.98 62.4455 34.38C67.4855 28.6867 73.4121 24.3 80.2255 21.22C87.1321 18.14 94.5988 16.6 102.625 16.6C120.639 16.6 134.499 22.1533 144.205 33.26C154.005 44.2733 158.905 59.9533 158.905 80.3C158.905 94.4867 155.919 106.433 149.945 116.14C154.052 118.847 158.019 120.9 161.845 122.3L147.425 140.92C142.572 138.587 137.812 135.833 133.145 132.66C124.372 137.793 113.872 140.36 101.645 140.36ZM101.645 117.12C103.605 117.12 105.659 117.027 107.805 116.84C109.952 116.653 112.099 116.327 114.245 115.86C110.512 111.66 107.059 107.32 103.885 102.84C100.805 98.2667 98.0521 93.6467 95.6255 88.98L117.325 79.6C118.445 82.7733 120.265 86.2267 122.785 89.96C125.399 93.6933 128.432 97.38 131.885 101.02C133.099 98.3133 134.032 95.14 134.685 91.5C135.432 87.86 135.805 83.66 135.805 78.9C135.805 66.2067 132.959 56.5933 127.265 50.06C121.572 43.4333 113.312 40.12 102.485 40.12C92.0321 40.12 83.9121 43.7133 78.1255 50.9C72.3388 58.0867 69.4455 68.3533 69.4455 81.7C69.4455 87.9533 70.4255 93.32 72.3855 97.8C74.4388 102.28 77.0988 105.967 80.3655 108.86C83.6321 111.66 87.1321 113.76 90.8655 115.16C94.5988 116.467 98.1921 117.12 101.645 117.12Z" fill="#C7C7C7"/>
<path d="M187.889 140.65C186.182 140.649 184.629 140.207 183.23 139.326C181.844 138.431 180.746 137.19 179.934 135.603C179.122 134.002 178.717 132.148 178.719 130.042C178.721 127.962 179.109 126.149 179.884 124.603C180.659 123.043 181.707 121.831 183.028 120.966C184.348 120.1 185.829 119.668 187.469 119.67C188.949 119.671 190.209 120.026 191.248 120.733C192.287 121.428 193.073 122.482 193.605 123.896C194.15 125.296 194.422 127.057 194.42 129.177L192.64 129.175C192.641 128.428 192.474 127.781 192.142 127.234C191.822 126.674 191.396 126.24 190.863 125.933C190.33 125.626 189.737 125.472 189.083 125.471C188.243 125.471 187.523 125.67 186.923 126.069C186.336 126.469 185.889 127.015 185.581 127.708C185.274 128.401 185.12 129.181 185.119 130.048C185.118 130.954 185.271 131.768 185.577 132.488C185.896 133.208 186.349 133.776 186.935 134.189C187.521 134.603 188.208 134.811 188.994 134.811C189.621 134.812 190.208 134.639 190.755 134.293C191.315 133.934 191.769 133.461 192.116 132.874C192.464 132.288 192.637 131.648 192.638 130.955L194.418 130.957C194.416 133.183 194.108 135.016 193.493 136.456C192.892 137.882 192.091 138.941 191.09 139.633C190.103 140.312 189.036 140.651 187.889 140.65ZM193.89 140.016L192.634 134.875L192.656 112.415L199.136 112.421L199.11 140.021L193.89 140.016ZM213.738 140.675C212.084 140.673 210.531 140.245 209.079 139.39C207.626 138.536 206.448 137.315 205.542 135.727C204.651 134.14 204.206 132.259 204.208 130.086C204.21 127.912 204.658 126.053 205.553 124.507C206.448 122.948 207.622 121.756 209.076 120.93C210.531 120.105 212.091 119.693 213.758 119.695C215.411 119.696 216.851 120.031 218.077 120.699C219.303 121.353 220.289 122.241 221.034 123.362C221.793 124.483 222.285 125.75 222.51 127.163C222.749 128.563 222.701 130.01 222.366 131.503L209.266 131.491L209.269 128.251L217.689 128.259L216.769 128.858C216.809 128.391 216.79 127.918 216.71 127.438C216.644 126.958 216.504 126.517 216.291 126.117C216.079 125.704 215.772 125.377 215.372 125.136C214.986 124.883 214.486 124.756 213.873 124.755C213.193 124.754 212.599 124.92 212.092 125.253C211.599 125.573 211.212 126.046 210.931 126.672C210.664 127.285 210.53 128.038 210.529 128.932L210.526 131.452C210.526 132.292 210.645 133.019 210.884 133.632C211.124 134.246 211.477 134.726 211.943 135.073C212.423 135.407 213.023 135.574 213.743 135.575C214.329 135.575 214.843 135.456 215.283 135.216C215.723 134.977 216.03 134.597 216.204 134.077L222.564 134.083C222.363 135.31 221.868 136.423 221.081 137.422C220.306 138.421 219.292 139.213 218.038 139.799C216.798 140.384 215.364 140.676 213.738 140.675ZM235.392 140.695C233.512 140.694 231.852 140.445 230.412 139.951C228.973 139.443 227.847 138.688 227.035 137.687C226.236 136.673 225.843 135.4 225.858 133.866L231.638 133.872C231.664 134.565 231.93 135.045 232.437 135.313C232.957 135.58 233.656 135.714 234.536 135.715C235.07 135.715 235.51 135.649 235.857 135.516C236.203 135.383 236.464 135.21 236.637 134.997C236.811 134.77 236.898 134.53 236.898 134.277C236.898 133.944 236.778 133.677 236.539 133.477C236.299 133.276 235.926 133.076 235.419 132.875L230.641 131.011C229.228 130.423 228.136 129.682 227.363 128.788C226.604 127.88 226.225 126.807 226.226 125.567C226.228 123.82 227.036 122.407 228.65 121.329C230.264 120.251 232.472 119.713 235.272 119.715C237.898 119.718 239.918 120.333 241.33 121.561C242.742 122.789 243.454 124.35 243.465 126.243L237.605 126.238C237.606 125.811 237.426 125.444 237.066 125.137C236.707 124.817 236.107 124.656 235.267 124.655C234.574 124.655 234.027 124.767 233.627 124.994C233.226 125.22 233.026 125.52 233.026 125.893C233.025 126.4 233.445 126.8 234.285 127.094L239.723 129.28C241.069 129.814 242.128 130.482 242.901 131.283C243.673 132.083 244.059 133.084 244.058 134.284C244.057 135.377 243.676 136.417 242.915 137.403C242.167 138.375 241.14 139.168 239.833 139.78C238.525 140.392 237.045 140.697 235.392 140.695ZM252.785 117.832C251.572 117.831 250.632 117.523 249.966 116.909C249.313 116.282 248.988 115.402 248.989 114.268C248.99 113.162 249.317 112.282 249.971 111.629C250.638 110.963 251.579 110.631 252.792 110.632C253.965 110.633 254.892 110.967 255.571 111.635C256.251 112.289 256.59 113.169 256.589 114.276C256.588 115.409 256.247 116.289 255.566 116.915C254.886 117.527 253.959 117.833 252.785 117.832ZM249.564 140.069L249.583 120.249L255.983 120.255L255.964 140.075L249.564 140.069ZM271.549 150.35C269.043 150.347 266.923 150.005 265.19 149.324C263.471 148.655 262.165 147.781 261.273 146.7C260.394 145.633 259.955 144.499 259.956 143.299C259.957 142.032 260.412 141.039 261.319 140.32C262.226 139.601 263.333 139.242 264.64 139.243L269.899 140.748C268.739 140.747 267.845 140.933 267.218 141.306C266.591 141.692 266.277 142.238 266.276 142.945C266.276 143.745 266.768 144.332 267.755 144.706C268.754 145.08 270.021 145.268 271.554 145.27C272.634 145.271 273.554 145.098 274.315 144.752C275.075 144.42 275.649 143.987 276.036 143.454C276.436 142.921 276.637 142.368 276.638 141.795C276.638 141.448 276.538 141.188 276.338 141.014C276.152 140.841 275.852 140.754 275.439 140.753L269.899 140.748C268.579 140.747 267.312 140.519 266.099 140.065C264.886 139.61 263.894 138.989 263.121 138.202C262.362 137.401 261.983 136.501 261.984 135.501C261.984 134.674 262.212 133.948 262.666 133.321C263.12 132.695 263.76 132.209 264.587 131.863C265.427 131.517 266.401 131.345 267.507 131.346L269.346 133.328C268.972 133.327 268.632 133.387 268.325 133.507C268.032 133.626 267.798 133.806 267.625 134.046C267.451 134.273 267.364 134.559 267.364 134.906C267.364 135.359 267.563 135.713 267.963 135.966C268.363 136.207 269.009 136.327 269.903 136.328L275.443 136.333C277.789 136.336 279.629 136.717 280.962 137.479C282.294 138.227 282.96 139.507 282.958 141.321C282.957 142.867 282.482 144.327 281.534 145.699C280.586 147.085 279.258 148.204 277.551 149.055C275.843 149.921 273.843 150.352 271.549 150.35ZM271.465 133.67C269.865 133.668 268.379 133.387 267.006 132.825C265.647 132.251 264.547 131.45 263.708 130.422C262.869 129.382 262.451 128.154 262.452 126.741C262.453 125.288 262.874 124.042 263.715 123.002C264.556 121.95 265.657 121.144 267.018 120.585C268.392 120.027 269.878 119.748 271.478 119.75C273.052 119.751 274.525 120.033 275.898 120.594C277.27 121.155 278.383 121.963 279.235 123.017C280.088 124.058 280.513 125.305 280.512 126.758C280.51 128.172 280.083 129.398 279.228 130.437C278.374 131.463 277.26 132.262 275.886 132.834C274.512 133.393 273.039 133.671 271.465 133.67ZM271.549 129.29C272.523 129.291 273.21 129.045 273.61 128.552C274.024 128.059 274.231 127.459 274.232 126.752C274.233 125.926 274.027 125.279 273.614 124.812C273.201 124.331 272.488 124.091 271.474 124.09C270.554 124.089 269.874 124.328 269.434 124.808C268.993 125.274 268.773 125.92 268.772 126.747C268.771 127.454 268.991 128.054 269.43 128.548C269.883 129.042 270.589 129.289 271.549 129.29ZM278.995 122.957L276.117 121.054C276.118 119.841 276.439 118.788 277.08 117.895C277.721 117.002 278.542 116.31 279.542 115.817C280.543 115.325 281.57 115.079 282.623 115.08L282.377 121.12C281.271 121.119 280.43 121.272 279.857 121.578C279.283 121.87 278.996 122.33 278.995 122.957ZM300.383 140.117L300.394 128.637C300.394 127.597 300.142 126.83 299.636 126.336C299.13 125.829 298.516 125.575 297.796 125.575C297.063 125.574 296.39 125.78 295.776 126.193C295.162 126.606 294.668 127.272 294.294 128.191C293.933 129.098 293.752 130.304 293.75 131.811L291.81 131.809C291.813 128.982 292.149 126.683 292.817 124.91C293.499 123.137 294.42 121.838 295.581 121.013C296.755 120.187 298.082 119.775 299.562 119.776C301.255 119.778 302.635 120.159 303.701 120.92C304.78 121.681 305.572 122.729 306.078 124.063C306.583 125.396 306.835 126.923 306.834 128.643L306.823 140.123L300.383 140.117ZM287.343 140.105L287.361 120.405L293.001 120.41L293.758 123.671L293.743 140.111L287.343 140.105ZM320.704 140.776C318.824 140.775 317.164 140.526 315.725 140.032C314.285 139.524 313.159 138.769 312.347 137.769C311.548 136.754 311.156 135.481 311.171 133.947L316.951 133.953C316.977 134.646 317.243 135.127 317.749 135.394C318.269 135.661 318.969 135.795 319.849 135.796C320.382 135.796 320.822 135.73 321.169 135.597C321.516 135.464 321.776 135.291 321.95 135.078C322.123 134.851 322.21 134.611 322.21 134.358C322.211 134.025 322.091 133.758 321.851 133.558C321.611 133.357 321.238 133.157 320.732 132.956L315.953 131.092C314.541 130.504 313.448 129.763 312.675 128.869C311.916 127.961 311.537 126.888 311.539 125.648C311.54 123.901 312.348 122.489 313.963 121.41C315.577 120.332 317.784 119.794 320.584 119.796C323.211 119.799 325.23 120.414 326.642 121.642C328.055 122.87 328.766 124.431 328.778 126.324L322.918 126.319C322.918 125.892 322.739 125.525 322.379 125.218C322.019 124.898 321.419 124.737 320.579 124.736C319.886 124.736 319.339 124.849 318.939 125.075C318.539 125.301 318.339 125.601 318.338 125.974C318.338 126.481 318.757 126.881 319.597 127.175L325.035 129.361C326.381 129.895 327.441 130.563 328.213 131.364C328.986 132.164 329.371 133.165 329.37 134.365C329.369 135.458 328.988 136.498 328.227 137.484C327.48 138.456 326.452 139.249 325.145 139.861C323.838 140.473 322.358 140.778 320.704 140.776Z" fill="#C7C7C7"/>
</svg>
